#N canvas 448 182 752 454 10;
#X obj 139 386 dac~ 1 2;
#X obj 140 329 *~;
#X obj 239 272 dbtorms;
#X obj 239 294 pack 0 10;
#X obj 239 316 line~;
#X obj 239 137 vsl 15 128 0 127 0 0 empty empty Volume 0 -9 0 10 -262144
-1 -1 0 1;
#N canvas 716 143 450 300 tabsend 0;
#X obj 48 149 inlet~;
#X obj 48 193 tabsend~ \$0-tabsend;
#X obj 48 171 *~ 100;
#X obj 179 102 block~ 64;
#X obj 13 51 table \$0-tabsend 64;
#X connect 0 0 2 0;
#X connect 2 0 1 0;
#X restore -107 126 pd tabsend;
#X text -37 35 1: left side mic;
#X text -15 51 2: right side 1st;
#X text 26 81 4: right side 3rd (right outside);
#X text 9 66 3: right side 2nd;
#X text 300 51 1 on the left side \, 3 on the right side under the
grill;
#X text 297 37 microphones are facing downwards;
#X text -90 107 view waveform;
#X text 410 372 www.matthiaskronlachner.com;
#X msg 365 204 \; pd dsp \$1 \;;
#X obj 365 183 tgl 15 0 empty empty empty 17 7 0 10 -262144 -1 -1 0
1;
#X text 386 181 DSP ON/OFF;
#N canvas 2 89 450 300 tabwrite 0;
#X msg 173 102 bang;
#X obj 122 61 inlet~;
#X obj 123 157 tabwrite~ \$0-tabwrite;
#X obj 122 94 *~ 10;
#X obj 262 107 table \$0-tabwrite 64;
#X obj 271 134 table \$0-tabwrite2 64;
#X obj 47 198 tabwrite~ \$0-tabwrite2;
#X obj 46 147 lop~ 8000;
#X connect 0 0 2 0;
#X connect 0 0 6 0;
#X connect 1 0 3 0;
#X connect 3 0 2 0;
#X connect 3 0 7 0;
#X connect 7 0 6 0;
#X restore -32 127 pd tabwrite;
#X text -81 93 debug;
#X msg 69 121 bang;
#X obj 120 261 print;
#X obj 360 340 print;
#N canvas 333 137 714 458 processlist 0;
#X obj 87 39 inlet;
#X obj 264 24 inlet;
#X obj 18 48 inlet;
#X obj 264 46 t b b;
#X obj 265 205 phasor~;
#X obj 265 227 +~ 1;
#X obj 266 182 sig~;
#X obj 266 163 /;
#X obj 264 99 t b b f;
#X msg 283 123 1;
#X obj 265 271 *~;
#X obj 391 23 inlet numsamples;
#X obj 263 328 outlet~;
#X floatatom 328 84 5 0 0 0 - - -;
#X floatatom 340 174 5 0 0 0 - - -;
#X obj 309 142 * 0.001;
#X msg 237 118 0;
#X obj 265 249 *~ 0.5;
#X obj 403 254 /;
#X floatatom 404 276 9 0 0 0 - - -;
#X obj 403 231 f;
#X obj 391 206 t b f;
#X obj 475 385 outlet~;
#X msg 329 366 bang;
#X obj 476 275 phasor~;
#X obj 475 228 sig~;
#X msg 515 251 0;
#X obj 603 259 snapshot~;
#X floatatom 603 281 10 0 0 0 - - -;
#X obj 264 307 tabread4~ \$0-buffer;
#X obj 474 344 tabread4~ \$0-buffer;
#X obj 331 402 tabplay~ \$0-buffer;
#X obj 21 84 s \$0-buffer;
#X obj 298 428 table \$0-buffer 441000;
#X obj 475 308 *~ 44100;
#X obj 566 229 * 16000;
#X obj 475 201 /;
#X obj 475 157 t b f;
#X msg 475 179 1;
#X msg 492 91 5;
#X obj 264 77 timer;
#X obj 159 18 list length;
#X floatatom 164 43 5 0 0 0 - - -;
#N canvas 482 166 717 548 write_into_buffer 0;
#X obj 33 26 inlet;
#X obj 33 59 t b b l;
#X obj 29 88 timer;
#X obj 29 166 * 16;
#X text 65 168 * 16000 / 1000;
#N canvas 431 167 660 566 up_down_counter 0;
#X obj 73 96 inlet;
#X obj 182 424 outlet;
#X obj 101 274 f;
#X obj 176 277 + 1;
#X text 77 76 increment by number;
#X obj 337 97 inlet;
#X text 341 77 decrement by number;
#X obj 538 95 inlet;
#X obj 75 132 t b f;
#X obj 334 129 t b f;
#X obj 364 154 * -1;
#X msg 547 159 0;
#X text 543 73 set;
#X obj 535 128 t b b f;
#X connect 0 0 8 0;
#X connect 2 0 3 0;
#X connect 3 0 2 1;
#X connect 3 0 1 0;
#X connect 5 0 9 0;
#X connect 7 0 13 0;
#X connect 8 0 2 0;
#X connect 8 1 3 1;
#X connect 9 0 2 0;
#X connect 9 1 10 0;
#X connect 10 0 3 1;
#X connect 11 0 2 1;
#X connect 13 0 2 0;
#X connect 13 1 11 0;
#X connect 13 2 3 1;
#X restore 646 158 pd up_down_counter;
#X msg 646 121 3;
#X msg 710 112 5;
#X floatatom 646 180 5 0 0 0 - - -;
#X msg 758 109 12;
#X floatatom 49 116 5 0 0 0 - - -;
#X obj 64 429 s \$0-buffer_1;
#X obj 68 373 list append;
#X text 618 158 help;
#X obj 434 337 tabread4~ \$0-buffer_1;
#X obj 149 374 list append;
#X obj 278 38 table \$0-buffer_1 30000;
#X text 433 38 triple buffer with 3 x 10000 samples;
#X obj 83 308 t f f f;
#X obj 235 375 list append;
#X obj 150 346 + 10000;
#X msg 430 157 1.6;
#X obj 434 291 *~ 10000;
#X obj 235 348 + 20000;
#X obj 494 395 env~;
#X floatatom 494 417 5 0 0 0 - - -;
#X obj 436 447 dac~ 1 2;
#X obj 433 267 phasor~ 1.6;
#X floatatom 147 259 9 0 0 0 - - -;
#X obj 434 369 *~ 4;
#X text 261 162 init;
#X obj 249 138 loadbang;
#X obj 497 136 vsl 15 101 0 1 0 0 empty empty empty 0 -9 0 10 -262144
-1 -1 0 1;
#X floatatom 497 245 5 0 0 0 - - -;
#X obj 401 83 bng 15 250 50 0 empty empty empty 17 7 0 10 -262144 -1
-1;
#X msg 522 106 0;
#X floatatom 429 207 5 0 0 0 - - -;
#N canvas 421 197 660 566 up_down_counter_modulo_ 0;
#X obj 73 96 inlet;
#X obj 175 355 outlet;
#X obj 101 274 f;
#X obj 176 277 + 1;
#X text 77 76 increment by number;
#X obj 337 97 inlet;
#X text 341 77 decrement by number;
#X obj 538 95 inlet;
#X obj 75 132 t b f;
#X obj 334 129 t b f;
#X obj 364 154 * -1;
#X msg 547 159 0;
#X text 543 73 set;
#X obj 535 128 t b b f;
#X obj 176 301 mod 10000;
#X connect 0 0 8 0;
#X connect 2 0 3 0;
#X connect 3 0 14 0;
#X connect 5 0 9 0;
#X connect 7 0 13 0;
#X connect 8 0 2 0;
#X connect 8 1 3 1;
#X connect 9 0 2 0;
#X connect 9 1 10 0;
#X connect 10 0 3 1;
#X connect 11 0 2 1;
#X connect 13 0 2 0;
#X connect 13 1 11 0;
#X connect 13 2 3 1;
#X connect 14 0 1 0;
#X connect 14 0 2 1;
#X restore 145 206 pd up_down_counter_modulo_ 10000;
#X msg 249 181 0;
#X obj 434 314 +~ 10000;
#X connect 0 0 1 0;
#X connect 1 0 2 0;
#X connect 1 1 2 1;
#X connect 1 2 12 1;
#X connect 1 2 15 1;
#X connect 1 2 19 1;
#X connect 2 0 3 0;
#X connect 2 0 10 0;
#X connect 3 0 37 0;
#X connect 5 0 8 0;
#X connect 6 0 5 0;
#X connect 7 0 5 1;
#X connect 9 0 5 2;
#X connect 12 0 11 0;
#X connect 14 0 29 0;
#X connect 15 0 11 0;
#X connect 18 0 12 0;
#X connect 18 1 20 0;
#X connect 18 2 23 0;
#X connect 19 0 11 0;
#X connect 20 0 15 0;
#X connect 21 0 36 0;
#X connect 22 0 39 0;
#X connect 23 0 19 0;
#X connect 24 0 25 0;
#X connect 27 0 22 0;
#X connect 29 0 26 1;
#X connect 29 0 26 0;
#X connect 29 0 24 0;
#X connect 31 0 38 0;
#X connect 32 0 33 0;
#X connect 33 0 27 1;
#X connect 34 0 38 0;
#X connect 34 0 32 0;
#X connect 36 0 27 0;
#X connect 37 0 28 0;
#X connect 37 0 18 0;
#X connect 38 0 37 2;
#X connect 39 0 14 0;
#X restore 106 253 pd write_into_buffer;
#N canvas 153 346 368 378 debug 0;
#X obj 145 55 inlet;
#X obj 76 131 timer;
#X floatatom 76 153 5 0 0 0 - - -;
#X obj 140 95 t l b b l;
#X obj 100 204 spigot 0;
#X obj 153 182 tgl 15 0 empty empty empty 17 7 0 10 -262144 -1 -1 0
1;
#X obj 186 138 list length;
#X obj 74 178 list append;
#X obj 98 226 print;
#X floatatom 231 168 5 0 0 0 - - -;
#X connect 0 0 3 0;
#X connect 1 0 2 0;
#X connect 2 0 7 0;
#X connect 3 1 1 0;
#X connect 3 2 1 1;
#X connect 3 3 6 0;
#X connect 3 3 7 1;
#X connect 4 0 8 0;
#X connect 5 0 4 1;
#X connect 6 0 9 0;
#X connect 7 0 4 0;
#X restore 126 151 pd debug;
#N canvas 1 107 527 465 average 0;
#X obj 44 38 inlet;
#X obj 44 60 t b b l;
#X obj 45 107 timer;
#X floatatom 44 132 5 0 0 0 - - -;
#X obj 90 106 list length;
#X floatatom 92 132 5 0 0 0 - - -;
#N canvas 427 179 660 566 up_down_counter 0;
#X obj 73 96 inlet;
#X obj 175 355 outlet;
#X obj 101 274 f;
#X obj 176 277 + 1;
#X text 77 76 increment by number;
#X obj 337 97 inlet;
#X text 341 77 decrement by number;
#X obj 538 95 inlet;
#X obj 75 132 t b f;
#X obj 334 129 t b f;
#X obj 364 154 * -1;
#X msg 547 159 0;
#X text 543 73 set;
#X obj 535 128 t b b f;
#X connect 0 0 8 0;
#X connect 2 0 3 0;
#X connect 3 0 1 0;
#X connect 3 0 2 1;
#X connect 5 0 9 0;
#X connect 7 0 13 0;
#X connect 8 0 2 0;
#X connect 8 1 3 1;
#X connect 9 0 2 0;
#X connect 9 1 10 0;
#X connect 10 0 3 1;
#X connect 11 0 2 1;
#X connect 13 0 2 0;
#X connect 13 1 11 0;
#X connect 13 2 3 1;
#X restore 164 178 pd up_down_counter;
#X text 281 134 init;
#X obj 267 118 loadbang;
#X obj 186 117 metro 1000;
#X msg 188 148 16000;
#X obj 184 87 tgl 15 0 empty empty empty 17 7 0 10 -262144 -1 -1 0
1;
#X floatatom 165 205 9 0 0 0 - - -;
#X msg 269 153 0;
#N canvas 389 244 656 500 1p1z_________ 0;
#X text 176 295 IEM KUG;
#X obj 22 221 +;
#X text 8 6 1p1z;
#X obj 169 71 inlet;
#X obj 22 49 inlet;
#X obj 22 243 outlet;
#X text 104 22 y[n] = a0*x[n] + a1*x[n-1] + b1*y[n-1];
#X text 176 53 a0;
#X text 25 34 x[n];
#X text 24 259 y[n];
#X obj 206 71 inlet;
#X text 213 53 a1;
#X obj 242 71 inlet;
#X text 249 53 b1;
#X obj 396 27 loadbang;
#X text 64 102 x[n-1];
#X obj 40 202 +;
#X obj 22 133 *;
#X obj 40 160 *;
#X obj 59 182 *;
#X text 82 143 y[n-1];
#X obj 284 72 t b b b;
#X obj 40 98 f;
#X obj 59 138 f;
#X obj 22 71 t f b b;
#X obj 352 83 inlet;
#X obj 430 123 inlet;
#X text 346 66 x[n-1]init;
#X text 428 105 y[n-1]init;
#X text 147 202 1.arg: <float> a0;
#X text 147 213 2.arg: <float> a1;
#X text 147 224 3.arg: <float> b1;
#X text 63 5 <float> control-IIR-filter 1.order;
#X text 160 283 musil;
#X text 190 283 @;
#X text 196 283 iem.at;
#X text 111 272 (c) Thomas Musil 2000 - 2005;
#X text 159 305 Graz \, Austria;
#X obj 206 145 f 0;
#X obj 295 49 bng 15 250 50 0 empty empty empty 17 7 0 10 -262144 -1
-1;
#X obj 242 167 f 0.99;
#X obj 170 117 f 0.01;
#X connect 1 0 5 0;
#X connect 1 0 23 1;
#X connect 3 0 41 0;
#X connect 4 0 24 0;
#X connect 10 0 38 0;
#X connect 12 0 40 0;
#X connect 14 0 39 0;
#X connect 16 0 1 1;
#X connect 17 0 1 0;
#X connect 18 0 16 0;
#X connect 19 0 16 1;
#X connect 21 0 41 0;
#X connect 21 1 38 0;
#X connect 21 2 40 0;
#X connect 22 0 18 0;
#X connect 23 0 19 0;
#X connect 24 0 17 0;
#X connect 24 0 22 1;
#X connect 24 1 22 0;
#X connect 24 2 23 0;
#X connect 25 0 22 1;
#X connect 26 0 23 1;
#X connect 38 0 18 1;
#X connect 39 0 21 0;
#X connect 40 0 19 1;
#X connect 41 0 17 1;
#X restore 47 387 pd 1p1z_________;
#X obj 48 286 pack 0 0;
#X msg 49 316 \$2 \$1;
#X obj 37 161 * 0.001;
#X obj 50 342 /;
#X floatatom 96 332 5 0 0 0 - - -;
#X floatatom 58 411 9 0 0 0 - - -;
#X connect 0 0 1 0;
#X connect 1 0 2 0;
#X connect 1 1 2 1;
#X connect 1 2 4 0;
#X connect 2 0 3 0;
#X connect 3 0 17 0;
#X connect 4 0 5 0;
#X connect 5 0 6 0;
#X connect 5 0 15 1;
#X connect 6 0 12 0;
#X connect 8 0 13 0;
#X connect 9 0 10 0;
#X connect 10 0 6 1;
#X connect 11 0 9 0;
#X connect 13 0 6 2;
#X connect 14 0 20 0;
#X connect 15 0 16 0;
#X connect 16 0 18 0;
#X connect 17 0 15 0;
#X connect 18 0 19 0;
#X connect 18 0 14 0;
#X restore 10 169 pd average;
#N canvas 1 107 527 465 average 0;
#X obj 44 38 inlet;
#X obj 44 60 t b b l;
#X obj 45 107 timer;
#X floatatom 44 132 5 0 0 0 - - -;
#X obj 90 106 list length;
#X floatatom 92 132 5 0 0 0 - - -;
#N canvas 427 179 660 566 up_down_counter 0;
#X obj 73 96 inlet;
#X obj 175 355 outlet;
#X obj 101 274 f;
#X obj 176 277 + 1;
#X text 77 76 increment by number;
#X obj 337 97 inlet;
#X text 341 77 decrement by number;
#X obj 538 95 inlet;
#X obj 75 132 t b f;
#X obj 334 129 t b f;
#X obj 364 154 * -1;
#X msg 547 159 0;
#X text 543 73 set;
#X obj 535 128 t b b f;
#X connect 0 0 8 0;
#X connect 2 0 3 0;
#X connect 3 0 1 0;
#X connect 3 0 2 1;
#X connect 5 0 9 0;
#X connect 7 0 13 0;
#X connect 8 0 2 0;
#X connect 8 1 3 1;
#X connect 9 0 2 0;
#X connect 9 1 10 0;
#X connect 10 0 3 1;
#X connect 11 0 2 1;
#X connect 13 0 2 0;
#X connect 13 1 11 0;
#X connect 13 2 3 1;
#X restore 164 178 pd up_down_counter;
#X text 281 134 init;
#X obj 267 118 loadbang;
#X obj 186 117 metro 1000;
#X msg 188 148 16000;
#X obj 184 87 tgl 15 0 empty empty empty 17 7 0 10 -262144 -1 -1 0
1;
#X floatatom 165 205 9 0 0 0 - - -;
#X msg 269 153 0;
#N canvas 387 250 656 500 1p1z_________ 0;
#X text 176 295 IEM KUG;
#X obj 22 221 +;
#X text 8 6 1p1z;
#X obj 169 71 inlet;
#X obj 22 49 inlet;
#X obj 22 243 outlet;
#X text 104 22 y[n] = a0*x[n] + a1*x[n-1] + b1*y[n-1];
#X text 176 53 a0;
#X text 25 34 x[n];
#X text 24 259 y[n];
#X obj 206 71 inlet;
#X text 213 53 a1;
#X obj 242 71 inlet;
#X text 249 53 b1;
#X obj 396 27 loadbang;
#X text 64 102 x[n-1];
#X obj 40 202 +;
#X obj 22 133 *;
#X obj 40 160 *;
#X obj 59 182 *;
#X text 82 143 y[n-1];
#X obj 284 72 t b b b;
#X obj 40 98 f;
#X obj 59 138 f;
#X obj 22 71 t f b b;
#X obj 352 83 inlet;
#X obj 430 123 inlet;
#X text 346 66 x[n-1]init;
#X text 428 105 y[n-1]init;
#X text 147 202 1.arg: <float> a0;
#X text 147 213 2.arg: <float> a1;
#X text 147 224 3.arg: <float> b1;
#X text 63 5 <float> control-IIR-filter 1.order;
#X text 160 283 musil;
#X text 190 283 @;
#X text 196 283 iem.at;
#X text 111 272 (c) Thomas Musil 2000 - 2005;
#X text 159 305 Graz \, Austria;
#X obj 206 145 f 0;
#X obj 295 49 bng 15 250 50 0 empty empty empty 17 7 0 10 -262144 -1
-1;
#X obj 170 117 f 0.002;
#X obj 242 167 f 0.998;
#X connect 1 0 5 0;
#X connect 1 0 23 1;
#X connect 3 0 40 0;
#X connect 4 0 24 0;
#X connect 10 0 38 0;
#X connect 12 0 41 0;
#X connect 14 0 39 0;
#X connect 16 0 1 1;
#X connect 17 0 1 0;
#X connect 18 0 16 0;
#X connect 19 0 16 1;
#X connect 21 0 40 0;
#X connect 21 1 38 0;
#X connect 21 2 41 0;
#X connect 22 0 18 0;
#X connect 23 0 19 0;
#X connect 24 0 17 0;
#X connect 24 0 22 1;
#X connect 24 1 22 0;
#X connect 24 2 23 0;
#X connect 25 0 22 1;
#X connect 26 0 23 1;
#X connect 38 0 18 1;
#X connect 39 0 21 0;
#X connect 40 0 17 1;
#X connect 41 0 19 1;
#X restore 47 387 pd 1p1z_________;
#X obj 48 286 pack 0 0;
#X msg 49 316 \$2 \$1;
#X obj 37 161 * 0.001;
#X obj 50 342 /;
#X floatatom 96 332 5 0 0 0 - - -;
#X floatatom 58 411 9 0 0 0 - - -;
#X connect 0 0 1 0;
#X connect 1 0 2 0;
#X connect 1 1 2 1;
#X connect 1 2 4 0;
#X connect 2 0 3 0;
#X connect 3 0 17 0;
#X connect 4 0 5 0;
#X connect 5 0 6 0;
#X connect 5 0 15 1;
#X connect 6 0 12 0;
#X connect 8 0 13 0;
#X connect 9 0 10 0;
#X connect 10 0 6 1;
#X connect 11 0 9 0;
#X connect 13 0 6 2;
#X connect 14 0 20 0;
#X connect 15 0 16 0;
#X connect 16 0 18 0;
#X connect 17 0 15 0;
#X connect 18 0 19 0;
#X connect 18 0 14 0;
#X restore 129 74 pd average;
#N canvas 157 278 368 378 old_aviod_repetitions 0;
#X obj 69 77 inlet;
#X obj 31 293 outlet;
#X obj 24 196 list-abs/list-compare;
#X obj 68 155 list;
#X obj 70 111 t l b l;
#X text 102 158 old list;
#X obj 33 261 list append;
#X obj 25 224 sel 0;
#X connect 0 0 4 0;
#X connect 2 0 7 0;
#X connect 3 0 2 1;
#X connect 4 0 3 1;
#X connect 4 0 2 0;
#X connect 4 1 3 0;
#X connect 4 2 6 1;
#X connect 6 0 1 0;
#X connect 7 0 6 0;
#X restore 533 38 pd old_aviod_repetitions;
#N canvas 153 346 368 378 aviod_repetitions 0;
#X obj 71 50 inlet;
#X obj 80 301 outlet;
#X obj 11 163 sel 0;
#X obj 83 269 list;
#X obj 13 138 list length;
#X obj 69 86 t l l;
#X obj 42 195 t b;
#X connect 0 0 5 0;
#X connect 2 1 6 0;
#X connect 3 0 1 0;
#X connect 4 0 2 0;
#X connect 5 0 4 0;
#X connect 5 1 3 1;
#X connect 6 0 3 0;
#X restore 97 110 pd aviod_repetitions;
#X text 66 395 by Thomas Musil;
#X text 66 375 Experimental;
#X connect 0 0 32 0;
#X connect 0 0 48 0;
#X connect 0 0 41 0;
#X connect 0 0 46 0;
#X connect 0 0 43 0;
#X connect 1 0 3 0;
#X connect 3 0 40 0;
#X connect 3 1 40 1;
#X connect 4 0 5 0;
#X connect 5 0 17 0;
#X connect 6 0 4 0;
#X connect 7 0 6 0;
#X connect 7 0 21 0;
#X connect 8 0 16 0;
#X connect 8 1 9 0;
#X connect 8 2 15 0;
#X connect 9 0 7 0;
#X connect 10 0 29 0;
#X connect 11 0 10 1;
#X connect 11 0 20 1;
#X connect 15 0 7 1;
#X connect 15 0 14 0;
#X connect 16 0 4 1;
#X connect 17 0 10 0;
#X connect 18 0 19 0;
#X connect 20 0 18 0;
#X connect 21 0 20 0;
#X connect 21 1 18 1;
#X connect 23 0 31 0;
#X connect 24 0 34 0;
#X connect 25 0 24 0;
#X connect 26 0 24 1;
#X connect 27 0 28 0;
#X connect 29 0 12 0;
#X connect 30 0 22 0;
#X connect 34 0 30 0;
#X connect 35 0 34 1;
#X connect 36 0 25 0;
#X connect 37 0 38 0;
#X connect 37 1 36 1;
#X connect 38 0 36 0;
#X connect 39 0 35 0;
#X connect 39 0 37 0;
#X connect 40 0 8 0;
#X connect 40 0 13 0;
#X connect 41 0 42 0;
#X connect 48 0 44 0;
#X connect 48 0 45 0;
#X restore 69 230 pd processlist;
#X obj 69 163 t b b;
#X obj 108 121 tgl 15 0 empty empty empty 17 7 0 10 -262144 -1 -1 0
1;
#X obj 140 353 hip~ 100;
#X obj 108 138 metro 10;
#X text 406 354 (C)2011/2012 Matthias Kronlachner;
#X obj 96 190 freenect_audio 0;
#X msg 193 126 info;
#X text 360 150 ALIASING PROBLEM!!!;
#X text 316 81 no resampling is done by the external!!;
#X text 315 66 kinect is running at about 16kHz samplerate;
#X text -57 -3 as list of samples when sending |bang(;
#X text -103 -16 freenect_audio outputs 4 microphone signals from Kinect
;
#X text -98 18 1st argument specifies Device ID or serial number;
#X obj 332 122 # freenect_audio A00362807917045A;
#X connect 1 0 26 0;
#X connect 2 0 3 0;
#X connect 3 0 4 0;
#X connect 4 0 1 1;
#X connect 5 0 2 0;
#X connect 16 0 15 0;
#X connect 20 0 24 0;
#X connect 23 0 1 0;
#X connect 24 0 23 0;
#X connect 24 1 29 0;
#X connect 25 0 27 0;
#X connect 26 0 0 0;
#X connect 26 0 0 1;
#X connect 27 0 24 0;
#X connect 29 0 23 1;
#X connect 29 4 23 2;
#X connect 29 4 23 3;
#X connect 30 0 29 0;
